<?xml version="1.0" encoding="UTF-8" standalone="no"?>
<!DOCTYPE svg PUBLIC "-//W3C//DTD SVG 1.1//EN" "http://www.w3.org/Graphics/SVG/1.1/DTD/svg11.dtd">
<svg width="100%" height="100%" viewBox="0 0 800 600" version="1.1" xmlns="http://www.w3.org/2000/svg" xmlns:xlink="http://www.w3.org/1999/xlink" xml:space="preserve" xmlns:serif="http://www.serif.com/" style="fill-rule:evenodd;clip-rule:evenodd;stroke-linejoin:round;stroke-miterlimit:2;">
    <g transform="matrix(1.79155,0,0,1.79155,-218.578,-236.49)">
        <g transform="matrix(18.6237,0,0,18.6237,-3692.9,-3978.78)">
            <path d="M207.994,230.347L207.994,229.195L210.637,229.195L210.637,231.555C210.131,231.9 209.684,232.134 209.295,232.259C208.906,232.383 208.445,232.446 207.911,232.446C207.254,232.446 206.719,232.334 206.305,232.11C205.891,231.886 205.57,231.552 205.342,231.109C205.114,230.666 205,230.158 205,229.584C205,228.98 205.125,228.454 205.374,228.008C205.623,227.561 205.988,227.222 206.469,226.99C206.844,226.812 207.349,226.722 207.983,226.722C208.595,226.722 209.052,226.778 209.355,226.888C209.659,226.999 209.91,227.171 210.111,227.404C210.311,227.636 210.461,227.932 210.562,228.289L208.912,228.583C208.844,228.375 208.729,228.215 208.566,228.104C208.404,227.993 208.197,227.938 207.945,227.938C207.57,227.938 207.271,228.068 207.049,228.329C206.826,228.589 206.715,229.001 206.715,229.565C206.715,230.164 206.827,230.592 207.052,230.849C207.278,231.105 207.592,231.234 207.994,231.234C208.186,231.234 208.368,231.206 208.542,231.151C208.715,231.095 208.914,231.001 209.138,230.868L209.138,230.347L207.994,230.347Z" style="fill:url(#_Linear1);fill-rule:nonzero;"/>
            <rect x="211.721" y="226.817" width="1.714" height="5.535" style="fill:url(#_Linear2);fill-rule:nonzero;"/>
            <path d="M214.273,226.817L219.472,226.817L219.472,228.183L217.727,228.183L217.727,232.351L216.017,232.351L216.017,228.183L214.273,228.183L214.273,226.817Z" style="fill:url(#_Linear3);fill-rule:nonzero;"/>
            <rect x="220.314" y="226.817" width="1.714" height="5.535" style="fill:url(#_Linear4);fill-rule:nonzero;"/>
        </g>
        <g transform="matrix(-1,0,0,1,1224.06,82.8887)">
            <path d="M714.921,228.842L714.921,207.396L764.139,207.396L764.139,251.342C754.717,257.764 746.385,262.135 739.143,264.455C731.901,266.775 723.311,267.935 713.374,267.935C701.139,267.935 691.167,265.849 683.456,261.678C675.745,257.506 669.768,251.295 665.526,243.045C661.284,234.795 659.163,225.326 659.163,214.639C659.163,203.389 661.483,193.603 666.124,185.283C670.764,176.963 677.561,170.646 686.514,166.334C693.499,163.006 702.897,161.342 714.71,161.342C726.1,161.342 734.62,162.373 740.268,164.435C745.917,166.498 750.604,169.697 754.331,174.033C758.057,178.369 760.858,183.865 762.733,190.521L732.006,196.006C730.741,192.115 728.596,189.139 725.573,187.076C722.549,185.014 718.694,183.982 714.006,183.982C707.022,183.982 701.456,186.408 697.307,191.26C693.159,196.111 691.085,203.787 691.085,214.287C691.085,225.443 693.182,233.412 697.378,238.193C701.573,242.974 707.421,245.365 714.921,245.365C718.483,245.365 721.881,244.849 725.116,243.818C728.35,242.787 732.053,241.029 736.225,238.545L736.225,228.842L714.921,228.842Z" style="fill:url(#_Linear5);fill-rule:nonzero;"/>
        </g>
    </g>
    <defs>
        <linearGradient id="_Linear1" x1="0" y1="0" x2="1" y2="0" gradientUnits="userSpaceOnUse" gradientTransform="matrix(0.00511577,7.88605,-7.88605,0.00511577,216.816,225.632)"><stop offset="0" style="stop-color:rgb(0,127,255);stop-opacity:1"/><stop offset="1" style="stop-color:rgb(0,76,153);stop-opacity:1"/></linearGradient>
        <linearGradient id="_Linear2" x1="0" y1="0" x2="1" y2="0" gradientUnits="userSpaceOnUse" gradientTransform="matrix(0.00511577,7.88605,-7.88605,0.00511577,216.816,225.632)"><stop offset="0" style="stop-color:rgb(0,127,255);stop-opacity:1"/><stop offset="1" style="stop-color:rgb(0,76,153);stop-opacity:1"/></linearGradient>
        <linearGradient id="_Linear3" x1="0" y1="0" x2="1" y2="0" gradientUnits="userSpaceOnUse" gradientTransform="matrix(0.00511577,7.88605,-7.88605,0.00511577,216.816,225.632)"><stop offset="0" style="stop-color:rgb(0,127,255);stop-opacity:1"/><stop offset="1" style="stop-color:rgb(0,76,153);stop-opacity:1"/></linearGradient>
        <linearGradient id="_Linear4" x1="0" y1="0" x2="1" y2="0" gradientUnits="userSpaceOnUse" gradientTransform="matrix(0.00511577,7.88605,-7.88605,0.00511577,216.816,225.632)"><stop offset="0" style="stop-color:rgb(0,127,255);stop-opacity:1"/><stop offset="1" style="stop-color:rgb(0,76,153);stop-opacity:1"/></linearGradient>
        <linearGradient id="_Linear5" x1="0" y1="0" x2="1" y2="0" gradientUnits="userSpaceOnUse" gradientTransform="matrix(-0.0952744,146.867,146.867,0.0952744,879.049,140.427)"><stop offset="0" style="stop-color:rgb(0,127,255);stop-opacity:1"/><stop offset="1" style="stop-color:rgb(0,76,153);stop-opacity:1"/></linearGradient>
    </defs>
</svg>
